<svg id="Capa_1" enable-background="new 0 0 512 512" height="512" viewBox="0 0 512 512" width="512" xmlns="http://www.w3.org/2000/svg"><g><g><path d="m170.41 374.312h171.181v91.281h-171.181z" fill="#524798"/><path d="m441.141 394.4h-370.282c-39.134 0-70.859-31.725-70.859-70.859v-239.072c0-39.134 31.725-70.859 70.859-70.859h370.282c39.134 0 70.859 31.725 70.859 70.859v239.071c0 39.135-31.725 70.86-70.859 70.86z" fill="#5e54ac"/><path d="m94.043 394.409h-23.182c-39.138 0-70.861-31.735-70.861-70.861v-239.076c0-39.137 31.723-70.861 70.861-70.861h23.183c-39.137 0-70.861 31.723-70.861 70.861v239.076c0 39.126 31.723 70.861 70.86 70.861z" fill="#524798"/><path d="m472.608 84.466v239.073c0 17.352-14.121 31.464-31.464 31.464h-23.842-304.8-41.639c-17.352 0-31.464-14.111-31.464-31.464v-239.073c0-17.343 14.111-31.464 31.464-31.464h370.281c17.343 0 31.464 14.121 31.464 31.464z" fill="#9dc6fb"/><path d="m100.707 355.004h-29.848c-17.342 0-31.464-14.111-31.464-31.464v-239.073c0-17.343 14.121-31.464 31.464-31.464h29.848c-17.342 0-31.464 14.121-31.464 31.464v239.073c0 17.353 14.122 31.464 31.464 31.464z" fill="#80b4fb"/><path d="m363.874 498.384h-215.748c-15.691 0-28.411-12.72-28.411-28.411 0-15.691 12.72-28.411 28.411-28.411h215.748c15.691 0 28.411 12.72 28.411 28.411 0 15.691-12.72 28.411-28.411 28.411z" fill="#5e54ac"/><path d="m218.137 498.39h-70.019c-15.692 0-28.404-12.725-28.404-28.417 0-7.853 3.178-14.944 8.312-20.092 5.148-5.148 12.252-8.325 20.092-8.325h70.019c-7.84 0-14.957 3.178-20.092 8.325-5.148 5.148-8.326 12.239-8.326 20.092.001 15.692 12.726 28.417 28.418 28.417z" fill="#524798"/></g><g><g><path d="m168.093 285.848c-.023 0-.045 0-.068-.001-4.267-.037-7.697-3.526-7.659-7.792.089-10.339.179-21.838.262-33.603h-62.366c-2.733 0-5.264-1.444-6.653-3.798-1.39-2.354-1.432-5.267-.112-7.66 4.807-8.714 47.197-85.416 55.105-95.118 7.472-9.167 15.131-8.036 18.078-7.123 6.306 1.953 10.805 8.308 11.463 16.191.426 5.116.263 46.805.041 82.055h10.155c4.267 0 7.726 3.459 7.726 7.726s-3.459 7.726-7.726 7.726h-10.259c-.117 16.651-.229 29.861-.263 33.736-.036 4.245-3.489 7.66-7.724 7.661zm-56.722-56.849h49.359c.243-39.004.357-76.648.013-80.772-.08-.964-.323-1.717-.562-2.219-.407.322-.956.839-1.601 1.63-4.752 5.829-28.852 48.312-47.209 81.361z" fill="#f1f4f6"/></g><g><path d="m395.493 285.848c-.022 0-.044 0-.067-.001-4.268-.037-7.696-3.526-7.66-7.792.09-10.339.18-21.838.262-33.603h-62.365c-2.733 0-5.264-1.444-6.653-3.798-1.39-2.354-1.433-5.267-.113-7.66 4.808-8.714 47.198-85.416 55.105-95.118 7.472-9.167 15.133-8.034 18.079-7.123 6.306 1.954 10.805 8.309 11.462 16.192.426 5.115.264 46.804.041 82.055h10.155c4.268 0 7.726 3.459 7.726 7.726s-3.459 7.726-7.726 7.726h-10.258c-.118 16.651-.229 29.861-.263 33.736-.037 4.244-3.489 7.659-7.725 7.66zm-56.722-56.849h49.359c.243-39.004.356-76.647.013-80.772-.08-.964-.324-1.718-.562-2.219-.407.322-.957.839-1.602 1.63-4.751 5.828-28.85 48.312-47.208 81.361z" fill="#f1f4f6"/></g><g><path d="m258.632 288.71c-26.625 0-48.285-21.66-48.285-48.285v-64.864c0-26.625 21.66-48.285 48.285-48.285s48.286 21.66 48.286 48.285v64.864c0 26.624-21.661 48.285-48.286 48.285zm0-145.982c-18.104 0-32.833 14.728-32.833 32.833v64.864c0 18.104 14.728 32.833 32.833 32.833s32.833-14.728 32.833-32.833v-64.864c0-18.104-14.729-32.833-32.833-32.833z" fill="#f1f4f6"/></g></g></g></svg>