<?xml version="1.0" standalone="no"?>
<!DOCTYPE svg PUBLIC "-//W3C//DTD SVG 20010904//EN"
 "http://www.w3.org/TR/2001/REC-SVG-20010904/DTD/svg10.dtd">
<svg version="1.0" xmlns="http://www.w3.org/2000/svg"
 width="16.000000pt" height="16.000000pt" viewBox="0 0 16.000000 16.000000"
 preserveAspectRatio="xMidYMid meet">
<metadata>
Created by potrace 1.11, written by Peter Selinger 2001-2013
</metadata>
<g transform="translate(0.000000,16.000000) scale(0.001416,-0.001416)"
fill="#000000" stroke="none">
<path d="M2819 10473 c-13 -21 -29 -49 -37 -63 -7 -14 -19 -32 -27 -40 -7 -8
-16 -25 -19 -37 -4 -13 -12 -23 -17 -23 -5 0 -9 -7 -9 -15 0 -8 -9 -19 -20
-25 -11 -6 -18 -15 -15 -21 7 -10 -52 -121 -67 -127 -4 -2 -8 -8 -8 -14 0 -15
-79 -147 -101 -169 -11 -11 -17 -24 -15 -28 3 -5 -2 -19 -12 -32 -9 -13 -28
-44 -41 -69 -13 -25 -30 -52 -37 -61 -8 -8 -14 -19 -14 -24 0 -4 -14 -31 -32
-59 -17 -28 -40 -67 -50 -86 -57 -101 -93 -160 -100 -160 -4 0 -8 -9 -8 -20 0
-11 -6 -23 -14 -26 -8 -3 -18 -19 -21 -36 -4 -18 -15 -32 -26 -35 -14 -4 -18
-11 -14 -24 4 -12 -1 -23 -14 -31 -12 -7 -21 -19 -21 -26 0 -7 -11 -32 -24
-55 -13 -23 -36 -63 -51 -89 -15 -27 -30 -48 -33 -48 -7 0 -32 -48 -32 -62 0
-4 -25 -48 -55 -98 -30 -50 -55 -92 -55 -95 0 -2 -30 -54 -68 -116 -37 -62
-84 -144 -105 -182 -21 -38 -50 -87 -65 -109 -15 -22 -45 -73 -67 -114 -53
-98 -247 -429 -279 -477 -14 -21 -26 -42 -26 -47 0 -5 -30 -58 -66 -117 -36
-59 -75 -124 -85 -143 -11 -19 -24 -42 -29 -50 -5 -8 -35 -60 -66 -115 -31
-55 -64 -111 -73 -125 -10 -14 -29 -49 -44 -77 -15 -29 -44 -79 -64 -110 -21
-32 -44 -69 -50 -83 -7 -14 -24 -43 -36 -65 -13 -22 -34 -58 -47 -80 -12 -22
-43 -75 -69 -118 -25 -43 -52 -90 -59 -103 -8 -14 -20 -28 -28 -31 -8 -3 -14
-14 -14 -25 0 -23 -77 -159 -97 -171 -7 -4 -13 -16 -13 -26 0 -10 -7 -24 -15
-31 -8 -7 -15 -17 -15 -23 0 -9 -18 -41 -117 -205 -12 -21 -26 -46 -31 -57 -6
-12 -17 -27 -26 -34 -9 -7 -16 -21 -16 -31 0 -10 -7 -23 -15 -30 -8 -7 -24
-31 -35 -54 -11 -22 -31 -61 -45 -85 -26 -47 -26 -71 3 -104 8 -9 12 -20 9
-24 -4 -4 1 -16 12 -27 38 -41 181 -303 181 -332 0 -8 4 -14 9 -14 11 0 94
-122 119 -176 10 -22 28 -55 40 -74 12 -19 21 -39 19 -44 -2 -5 7 -19 20 -32
13 -13 23 -31 23 -41 1 -10 14 -34 30 -53 17 -19 30 -42 30 -51 0 -22 17 -53
66 -119 39 -53 134 -215 134 -229 0 -3 16 -31 36 -61 20 -30 37 -60 38 -67 1
-7 9 -20 18 -30 25 -29 38 -60 32 -76 -3 -9 3 -16 15 -20 15 -3 21 -13 21 -31
0 -17 5 -26 16 -26 11 0 15 -6 11 -19 -3 -13 1 -21 13 -24 9 -2 20 -17 24 -33
4 -16 14 -37 23 -46 8 -9 12 -21 9 -26 -3 -6 0 -12 8 -15 8 -3 20 -18 29 -34
29 -56 42 -79 65 -110 12 -17 22 -39 22 -48 0 -9 9 -24 19 -33 11 -10 50 -73
89 -142 38 -69 91 -163 118 -210 78 -136 81 -142 113 -206 18 -34 38 -67 46
-74 8 -7 15 -17 15 -22 0 -6 8 -22 19 -36 10 -15 33 -56 52 -92 18 -36 43 -78
54 -95 12 -16 33 -50 46 -75 13 -25 34 -60 47 -79 12 -19 25 -46 29 -60 3 -14
14 -35 23 -46 18 -21 207 -345 218 -374 3 -9 15 -29 27 -46 30 -40 105 -185
105 -201 0 -7 7 -17 15 -21 13 -8 83 -123 180 -298 12 -22 39 -67 59 -100 20
-33 36 -66 36 -72 0 -7 9 -22 20 -33 11 -11 20 -27 20 -35 0 -8 4 -15 9 -15 5
0 13 -10 17 -22 4 -13 21 -45 39 -73 56 -89 115 -202 108 -209 -4 -4 6 -18 22
-31 25 -21 28 -26 15 -35 -15 -9 -13 -11 12 -14 7 0 33 -38 59 -84 25 -46 53
-90 61 -99 14 -13 105 -15 733 -19 477 -2 721 -7 730 -14 8 -6 116 -10 308 -9
255 1 297 3 302 17 5 13 106 14 928 8 602 -4 923 -9 925 -16 5 -13 542 -13
576 0 23 8 26 7 26 -11 0 -17 4 -19 18 -13 9 5 152 12 317 16 165 5 405 11
533 15 l233 8 28 50 c64 115 183 313 224 374 15 22 27 45 27 51 0 6 11 28 25
50 14 22 25 42 25 44 0 9 107 184 129 212 12 15 21 30 21 34 0 5 28 56 63 115
34 59 78 137 98 174 20 36 43 67 52 69 9 2 14 9 11 16 -3 8 2 20 10 29 9 9 16
20 16 25 0 15 62 126 83 150 12 12 22 30 23 40 2 9 12 24 23 34 12 9 21 23 21
32 0 14 29 70 70 136 5 8 58 98 116 200 59 102 118 196 131 211 12 14 23 30
23 37 0 6 8 26 18 44 11 18 34 60 53 93 18 33 41 66 51 73 10 7 16 17 13 22
-6 10 85 170 117 206 10 11 18 28 18 37 0 9 4 18 9 22 18 10 68 91 75 119 8
31 46 87 55 82 3 -2 7 6 7 19 1 13 17 44 35 70 19 26 37 52 40 59 3 6 19 37
35 69 16 33 37 63 47 68 10 6 15 14 11 20 -3 5 14 42 37 82 24 40 49 81 55 92
90 158 199 343 210 356 8 8 14 18 14 22 0 4 21 41 46 84 53 89 61 103 135 233
29 52 56 97 60 100 3 3 23 37 44 75 20 39 45 81 55 95 10 14 49 81 87 150 39
69 113 200 166 291 54 92 97 177 97 189 0 20 -42 99 -90 170 -9 14 -32 53 -51
88 -19 34 -44 79 -56 100 -12 20 -38 69 -57 108 -19 39 -42 76 -50 83 -9 8
-16 17 -16 22 0 5 -18 39 -41 75 -22 37 -45 77 -50 88 -11 26 -30 56 -46 74
-7 7 -13 17 -13 22 0 5 -22 46 -50 92 -27 46 -50 87 -50 92 0 5 -6 17 -14 25
-23 27 -166 280 -166 294 0 8 -9 22 -20 32 -11 10 -20 26 -20 35 0 10 -6 23
-14 29 -16 13 -120 192 -132 226 -4 11 -15 29 -24 40 -10 11 -31 45 -47 75
-17 30 -47 82 -66 115 -20 33 -47 80 -60 105 -13 25 -38 69 -55 98 -18 29 -32
62 -32 72 0 11 -6 20 -14 20 -8 0 -18 10 -22 23 -3 12 -13 30 -21 39 -9 10
-13 26 -10 38 3 11 2 18 -3 15 -4 -2 -14 3 -22 13 -14 16 -29 41 -102 175 -14
27 -24 52 -22 56 3 4 -6 18 -19 29 -14 12 -22 28 -19 36 3 8 -3 19 -14 25 -10
5 -36 41 -56 78 -20 37 -42 77 -49 87 -49 78 -67 112 -67 127 0 9 -7 22 -15
29 -19 16 -45 68 -45 90 0 10 -11 25 -25 34 -14 9 -25 22 -25 28 0 9 -62 116
-120 208 -5 8 -24 44 -42 80 -18 36 -39 73 -48 83 -14 16 -82 135 -113 197 -7
14 -24 43 -38 65 -14 22 -41 67 -59 100 -19 33 -44 78 -57 100 -12 22 -26 47
-30 55 -4 8 -15 27 -26 42 -11 14 -16 31 -13 37 4 6 3 11 -2 11 -6 0 -30 35
-55 78 -25 42 -55 93 -66 112 -11 19 -25 44 -30 56 -5 12 -26 47 -46 78 -20
31 -45 75 -56 99 -10 23 -34 65 -51 92 -18 28 -48 79 -68 115 -19 36 -46 82
-58 103 l-24 37 -2828 0 -2828 0 -23 -37z m1566 -1731 c6 -4 19 -25 30 -47 11
-22 26 -44 33 -48 6 -4 12 -14 12 -22 0 -11 67 -134 100 -185 6 -8 21 -35 33
-60 12 -25 34 -63 48 -85 70 -113 73 -120 54 -153 -8 -15 -21 -40 -29 -57 -8
-16 -22 -41 -33 -55 -10 -14 -29 -46 -43 -72 -13 -27 -28 -48 -31 -48 -4 0 -9
-8 -13 -17 -3 -10 -21 -45 -40 -78 -19 -33 -47 -83 -61 -111 l-27 -51 27 -59
c16 -33 34 -66 42 -75 7 -9 15 -25 18 -35 2 -11 57 -125 123 -255 66 -130 124
-244 129 -255 6 -10 14 -28 20 -39 5 -11 30 -60 55 -110 25 -49 112 -225 194
-389 l149 -299 180 7 c155 5 182 8 193 23 20 28 75 93 105 127 16 17 40 46 54
64 14 18 41 49 60 70 19 20 51 57 71 81 20 24 52 59 70 79 17 20 32 39 32 43
0 3 21 29 48 57 68 71 129 143 173 202 14 19 37 46 50 61 40 42 155 173 175
198 10 14 29 35 41 47 12 13 30 37 39 54 10 16 26 33 36 36 10 3 18 9 18 12 0
8 59 82 118 148 20 23 46 52 56 65 11 13 50 59 88 102 37 42 68 84 68 92 0 16
-51 113 -81 157 -11 14 -19 29 -19 32 0 4 -18 36 -40 72 -22 36 -40 70 -40 74
0 5 -3 10 -7 12 -5 2 -21 29 -38 61 -23 45 -27 61 -19 75 6 9 22 37 36 62 14
25 45 79 70 120 24 41 48 82 52 90 29 60 159 274 170 282 16 11 641 10 670 -2
16 -6 34 -27 47 -56 12 -25 28 -48 35 -51 8 -3 12 -8 9 -13 -2 -4 11 -32 29
-63 19 -31 31 -58 28 -61 -3 -3 0 -6 6 -6 7 0 12 -5 12 -11 0 -6 9 -24 21 -40
11 -16 33 -53 48 -82 29 -57 53 -99 61 -107 14 -14 40 -74 40 -91 0 -11 -11
-35 -25 -53 -14 -18 -25 -35 -25 -39 0 -3 -27 -51 -60 -107 -33 -56 -60 -103
-60 -105 0 -2 -21 -39 -47 -82 -25 -43 -46 -85 -45 -94 0 -8 26 -53 57 -100
31 -46 68 -106 82 -134 14 -27 40 -70 58 -95 18 -25 44 -65 57 -90 14 -25 49
-83 78 -130 29 -47 62 -101 73 -120 12 -19 47 -75 79 -124 32 -49 58 -95 58
-101 0 -7 9 -23 20 -35 12 -13 34 -48 51 -77 17 -29 34 -55 39 -58 5 -3 18
-26 29 -50 11 -25 42 -78 70 -119 28 -41 59 -93 71 -116 11 -22 41 -71 66
-108 l45 -67 275 -5 276 -5 24 -30 c12 -16 21 -31 19 -33 -2 -3 6 -19 18 -36
12 -17 22 -33 22 -36 0 -3 17 -33 38 -66 20 -34 37 -65 37 -69 0 -4 10 -21 23
-38 12 -18 32 -52 44 -77 13 -25 27 -52 32 -60 46 -73 71 -124 71 -145 0 -13
-13 -46 -30 -72 -16 -26 -30 -52 -30 -59 0 -7 -3 -14 -8 -16 -4 -1 -27 -37
-52 -78 -25 -41 -50 -84 -57 -95 -6 -11 -19 -33 -27 -50 -28 -54 -97 -167
-106 -175 -4 -3 -9 -13 -13 -22 -6 -17 -28 -18 -271 -18 l-265 0 -43 -62 c-64
-94 -104 -157 -134 -213 -15 -27 -66 -108 -114 -180 -111 -164 -151 -227 -185
-290 -15 -27 -41 -70 -58 -95 -132 -195 -209 -315 -241 -373 -20 -38 -41 -74
-47 -80 -6 -7 -37 -52 -70 -101 -57 -87 -70 -116 -49 -116 6 0 9 -3 8 -8 -2
-6 13 -38 45 -99 6 -13 15 -23 19 -23 5 0 8 -5 8 -11 0 -6 10 -25 22 -41 11
-17 36 -61 55 -99 18 -37 39 -74 46 -81 22 -25 47 -79 47 -103 0 -12 -7 -28
-15 -35 -8 -7 -15 -16 -15 -21 0 -7 -24 -49 -102 -176 -21 -34 -38 -64 -38
-67 0 -2 -29 -54 -65 -115 -36 -60 -65 -113 -65 -116 0 -4 -6 -13 -14 -21 -12
-12 -74 -14 -358 -14 l-344 0 -17 33 c-9 17 -23 41 -29 52 -42 64 -129 216
-168 290 l-26 50 -1030 3 -1029 2 -30 -57 c-16 -32 -36 -65 -42 -73 -7 -8 -13
-19 -14 -25 0 -5 -6 -17 -13 -25 -7 -8 -36 -57 -65 -108 -29 -51 -58 -98 -65
-105 -7 -7 -15 -18 -17 -25 -3 -10 -79 -13 -343 -13 -187 0 -343 4 -347 8 -3
5 -22 37 -40 73 -19 36 -40 71 -47 79 -8 8 -24 38 -37 66 -12 29 -27 55 -33
59 -6 3 -22 30 -37 59 -14 28 -34 66 -44 82 -10 17 -29 51 -43 76 -14 25 -32
55 -39 67 -11 18 -11 24 3 39 8 10 30 45 48 78 18 33 36 62 39 65 4 3 12 16
18 30 7 14 26 48 42 75 17 28 37 64 44 80 8 17 33 59 55 93 23 35 44 74 48 85
4 12 16 30 27 39 18 16 49 18 332 18 188 0 324 -4 342 -10 21 -8 34 -23 48
-55 10 -25 22 -45 26 -45 4 0 11 -10 15 -22 3 -13 26 -55 50 -94 24 -39 44
-75 44 -81 0 -5 8 -17 18 -27 11 -9 25 -34 32 -56 l13 -40 1038 0 1038 0 36
62 c20 35 41 70 46 78 5 8 15 27 22 43 6 15 15 27 19 27 4 0 8 5 8 11 0 6 20
42 45 80 25 38 45 73 45 77 0 4 5 14 10 22 8 12 53 16 267 20 l258 5 32 50
c17 28 41 64 53 80 52 74 168 255 199 310 38 68 218 342 240 365 8 8 23 35 34
60 11 25 68 116 126 203 58 87 129 197 158 245 28 48 68 113 88 144 l37 57
-26 38 c-14 21 -26 42 -26 46 0 5 -13 29 -30 54 -16 24 -30 47 -30 50 0 3 -17
33 -37 67 -44 72 -63 105 -93 164 -20 38 -21 45 -8 60 8 9 18 24 21 33 4 14
55 99 117 199 5 8 17 31 27 50 9 19 30 56 46 82 l28 48 -55 91 c-31 50 -56 93
-56 95 0 3 -22 37 -49 77 -27 40 -63 99 -80 132 -18 33 -48 83 -67 110 -19 28
-46 70 -59 95 -12 25 -48 83 -79 130 -31 46 -56 89 -56 96 0 6 -7 17 -15 24
-8 7 -27 36 -41 64 -14 28 -33 60 -43 71 -10 11 -20 27 -23 36 -3 8 -28 49
-54 90 -27 40 -59 94 -72 118 -13 23 -52 86 -88 139 -35 53 -64 101 -64 107 0
6 -13 32 -30 58 l-30 47 -168 0 -169 0 -24 -32 c-13 -18 -36 -44 -50 -58 -14
-14 -52 -56 -84 -95 -32 -38 -66 -79 -76 -90 -10 -11 -55 -65 -101 -119 -46
-55 -94 -111 -108 -126 -14 -15 -38 -43 -54 -64 -16 -20 -53 -62 -82 -94 -29
-31 -54 -60 -54 -64 0 -4 -15 -23 -32 -42 -32 -35 -72 -81 -142 -161 -18 -22
-49 -58 -68 -80 -19 -22 -43 -51 -54 -64 -10 -13 -30 -37 -44 -52 -14 -15 -41
-46 -60 -70 -19 -23 -48 -56 -63 -73 -16 -17 -41 -46 -55 -65 -15 -19 -38 -46
-51 -60 -61 -67 -80 -89 -114 -132 -20 -25 -37 -50 -37 -54 0 -4 17 -35 38
-69 20 -33 43 -70 49 -81 7 -11 24 -42 37 -70 29 -58 58 -108 67 -115 4 -3 16
-23 28 -44 l21 -40 -22 -35 c-35 -60 -60 -104 -84 -147 -12 -22 -33 -58 -46
-80 -14 -21 -28 -46 -32 -54 -3 -8 -22 -40 -40 -70 -19 -30 -46 -79 -62 -107
l-27 -53 -363 0 -362 0 -29 48 c-15 26 -33 58 -40 72 -7 14 -18 34 -25 45 -29
44 -64 102 -84 140 -22 42 -38 70 -98 172 -20 34 -36 66 -36 71 0 10 19 44
120 217 51 87 86 148 119 210 9 17 24 41 33 54 16 23 16 26 -2 52 -11 15 -20
31 -20 35 0 6 -90 187 -144 289 -9 17 -72 145 -141 285 -69 140 -132 266 -139
280 -24 42 -266 523 -283 563 l-16 37 -232 0 c-269 0 -244 -10 -309 125 -8 17
-23 41 -33 55 -11 14 -27 41 -36 61 -9 20 -23 42 -31 48 -8 7 -17 24 -21 39
-4 15 -17 41 -31 59 -13 17 -24 34 -24 37 0 2 -21 39 -46 81 -25 43 -43 83
-39 89 3 6 16 29 28 51 13 22 32 56 42 75 11 19 23 37 26 40 4 3 21 32 39 65
18 33 36 65 41 71 5 6 20 31 33 55 13 24 33 60 45 79 12 19 30 53 41 75 10 23
22 44 26 48 10 9 686 9 699 -1z"/>
</g>
</svg>
