<svg width="512" height="513" viewBox="0 0 512 513" fill="none" xmlns="http://www.w3.org/2000/svg">
<path d="M458 157.401V52.9777H339.507L296.426 14.9436C273.905 -4.89053 239.883 -4.95253 217.28 14.8046L0 204.918V257H40V452.021C40 485.108 66.916 512.027 100 512.027H222V364.011H292V512.027H412C445.084 512.027 472 485.108 472 452.021V257H512V204.956L458 157.401ZM432 452.021C432 463.05 423.028 472.023 412 472.023H332V324.007H182V472.023H100C88.972 472.023 80 463.05 80 452.021V257H432V452.021ZM46.945 216.995L243.611 44.9189C251.143 38.3351 262.483 38.3551 269.973 44.9509L378 140.323V92.982H418V175.478L465.144 216.995H46.945Z" fill="url(#paint0_linear)"/>
<defs>
<linearGradient id="paint0_linear" x1="449" y1="70.5076" x2="44.4578" y2="462.006" gradientUnits="userSpaceOnUse">
<stop stop-color="#6247aa"/>
<stop offset="1" stop-color="#a594f9 "/>
</linearGradient>
</defs>
</svg>
