<svg width="45" height="45" viewBox="0 0 45 45" fill="none" xmlns="http://www.w3.org/2000/svg">
<path d="M42 39.7477H12C11.4033 39.7477 10.831 39.5107 10.409 39.0888C9.98705 38.6668 9.75 38.0946 9.75 37.4979V2.99987C9.75 2.40317 9.98705 1.8309 10.409 1.40897C10.831 0.987039 11.4033 0.75 12 0.75H36.75L44.25 8.24956V37.4979C44.25 38.0946 44.0129 38.6668 43.591 39.0888C43.169 39.5107 42.5967 39.7477 42 39.7477Z" fill="#9196FF"/>
<path d="M24 12.7493H30V11.2493H24.75V9.74943H30V8.24952H24.75V6.74961H30V5.24969H24C23.8011 5.24969 23.6103 5.32871 23.4697 5.46935C23.329 5.61 23.25 5.80075 23.25 5.99965V11.9993C23.25 12.1982 23.329 12.389 23.4697 12.5296C23.6103 12.6702 23.8011 12.7493 24 12.7493Z" fill="#2B78B8"/>
<path d="M17.25 20.2488V18.7489H14.25V16.4991H17.25V14.9991H13.5C13.3011 14.9991 13.1103 15.0782 12.9697 15.2188C12.829 15.3594 12.75 15.5502 12.75 15.7491V19.4989C12.75 19.6978 12.829 19.8885 12.9697 20.0292C13.1103 20.1698 13.3011 20.2488 13.5 20.2488H17.25Z" fill="#2B78B8"/>
<path d="M25.5 20.2488V15.7491C25.5 15.5502 25.421 15.3594 25.2803 15.2188C25.1397 15.0782 24.9489 14.9991 24.75 14.9991H21C20.8011 14.9991 20.6103 15.0782 20.4697 15.2188C20.329 15.3594 20.25 15.5502 20.25 15.7491V20.2488H21.75V16.4991H24V20.2488H25.5Z" fill="#2B78B8"/>
<path d="M28.5 16.4991H31.5V18.7489H28.5V20.2488H32.25C32.4489 20.2488 32.6397 20.1698 32.7803 20.0292C32.921 19.8885 33 19.6978 33 19.4989V15.7491C33 15.5502 32.921 15.3594 32.7803 15.2188C32.6397 15.0782 32.4489 14.9991 32.25 14.9991H28.5V16.4991Z" fill="#2B78B8"/>
<path d="M40.5 14.9991H36.75C36.5511 14.9991 36.3603 15.0782 36.2197 15.2188C36.079 15.3594 36 15.5502 36 15.7491V20.2488H37.5V16.4991H39.75V20.2488H41.25V15.7491C41.25 15.5502 41.171 15.3594 41.0303 15.2188C40.8897 15.0782 40.6989 14.9991 40.5 14.9991Z" fill="#2B78B8"/>
<path d="M17.25 23.2487H14.25C14.0511 23.2487 13.8603 23.3277 13.7197 23.4683C13.579 23.609 13.5 23.7997 13.5 23.9986V27.7484H15V24.7486H16.5V27.7484H18V23.9986C18 23.7997 17.921 23.609 17.7803 23.4683C17.6397 23.3277 17.4489 23.2487 17.25 23.2487Z" fill="#2B78B8"/>
<path d="M19.5 23.9986V26.9984C19.5 27.1973 19.579 27.3881 19.7197 27.5287C19.8603 27.6694 20.0511 27.7484 20.25 27.7484H23.25V26.2485H21V24.7486H23.25V23.2487H20.25C20.0511 23.2487 19.8603 23.3277 19.7197 23.4683C19.579 23.609 19.5 23.7997 19.5 23.9986Z" fill="#2B78B8"/>
<path d="M27.75 26.2485H26.25V23.2487H24.75V26.9984C24.75 27.1973 24.829 27.3881 24.9697 27.5287C25.1103 27.6694 25.3011 27.7484 25.5 27.7484H28.5C28.6989 27.7484 28.8897 27.6694 29.0303 27.5287C29.171 27.3881 29.25 27.1973 29.25 26.9984V23.2487H27.75V26.2485Z" fill="#2B78B8"/>
<path d="M35.25 23.2487H33.75V26.2485H32.25V23.2487H30.75V26.9984C30.75 27.1973 30.829 27.3881 30.9697 27.5287C31.1103 27.6694 31.3011 27.7484 31.5 27.7484H34.5C34.6989 27.7484 34.8897 27.6694 35.0303 27.5287C35.171 27.3881 35.25 27.1973 35.25 26.9984V23.2487Z" fill="#2B78B8"/>
<path d="M39.75 23.2487H36.75V24.7486H39V26.2485H36.75V27.7484H39.75C39.9489 27.7484 40.1397 27.6694 40.2803 27.5287C40.421 27.3881 40.5 27.1973 40.5 26.9984V23.9986C40.5 23.7997 40.421 23.609 40.2803 23.4683C40.1397 23.3277 39.9489 23.2487 39.75 23.2487Z" fill="#2B78B8"/>
<path d="M15 31.4982V32.9981C15 33.197 15.079 33.3878 15.2197 33.5284C15.3603 33.669 15.5511 33.7481 15.75 33.7481H18V30.7482H15.75C15.5511 30.7482 15.3603 30.8272 15.2197 30.9679C15.079 31.1085 15 31.2993 15 31.4982Z" fill="#2B78B8"/>
<path d="M22.5 30.7482H21C20.8011 30.7482 20.6103 30.8272 20.4697 30.9679C20.329 31.1085 20.25 31.2993 20.25 31.4982V33.7481H23.25V31.4982C23.25 31.2993 23.171 31.1085 23.0303 30.9679C22.8897 30.8272 22.6989 30.7482 22.5 30.7482Z" fill="#2B78B8"/>
<path d="M25.5 30.7482V32.9981C25.5 33.197 25.579 33.3878 25.7197 33.5284C25.8603 33.669 26.0511 33.7481 26.25 33.7481H27.75C27.9489 33.7481 28.1397 33.669 28.2803 33.5284C28.421 33.3878 28.5 33.197 28.5 32.9981V30.7482H25.5Z" fill="#2B78B8"/>
<path d="M33 30.7482H30.75V33.7481H33C33.1989 33.7481 33.3897 33.669 33.5303 33.5284C33.671 33.3878 33.75 33.197 33.75 32.9981V31.4982C33.75 31.2993 33.671 31.1085 33.5303 30.9679C33.3897 30.8272 33.1989 30.7482 33 30.7482Z" fill="#2B78B8"/>
<path d="M37.5 30.7482H36C35.8011 30.7482 35.6103 30.8272 35.4697 30.9679C35.329 31.1085 35.25 31.2993 35.25 31.4982V33.7481H38.25V31.4982C38.25 31.2993 38.171 31.1085 38.0303 30.9679C37.8897 30.8272 37.6989 30.7482 37.5 30.7482Z" fill="#2B78B8"/>
<path d="M32.25 35.9979C24.1466 24.9986 8.85337 24.9986 0.75 35.9979C8.85337 46.9972 24.1466 46.9972 32.25 35.9979Z" fill="#E0E0DE"/>
<path d="M16.5 44.2475C21.0563 44.2475 24.75 40.554 24.75 35.9979C24.75 31.4418 21.0563 27.7484 16.5 27.7484C11.9436 27.7484 8.25 31.4418 8.25 35.9979C8.25 40.554 11.9436 44.2475 16.5 44.2475Z" fill="#373ECD"/>
<path d="M16.5 38.9978C18.1569 38.9978 19.5 37.6547 19.5 35.9979C19.5 34.3412 18.1569 32.9981 16.5 32.9981C14.8431 32.9981 13.5 34.3412 13.5 35.9979C13.5 37.6547 14.8431 38.9978 16.5 38.9978Z" fill="#97C0FF"/>
<path d="M36.75 0.75V5.99969C36.75 6.5964 36.9871 7.16866 37.409 7.59059C37.831 8.01252 38.4033 8.24956 39 8.24956H44.25L36.75 0.75Z" fill="#444DFC"/>
<path d="M39 8.24951H44.25V10.4994H41.25C40.6533 10.4994 40.081 10.2623 39.659 9.84041C39.2371 9.41848 39 8.84621 39 8.24951Z" fill="#7479DA"/>
<path d="M9 7.49951H10.5V26.2484H9V7.49951Z" fill="black"/>
<path d="M44.7803 7.71921L37.2803 0.219644C37.2107 0.150004 37.128 0.0947645 37.037 0.057078C36.946 0.0193915 36.8485 -3.58812e-06 36.75 4.97902e-10H12C11.2046 0.000893239 10.4421 0.317232 9.87967 0.879615C9.31725 1.442 9.00089 2.2045 9 2.99983V5.99965H10.5V2.99983C10.5005 2.60217 10.6587 2.22093 10.9399 1.93975C11.2211 1.65856 11.6023 1.50038 12 1.49991H36V5.99965C36.0009 6.79498 36.3172 7.55748 36.8797 8.11986C37.4421 8.68224 38.2046 8.99858 39 8.99948H43.5V31.4982H45V8.24952C45 8.15103 44.9806 8.05351 44.9429 7.96252C44.9052 7.87153 44.85 7.78885 44.7803 7.71921V7.71921ZM37.5 5.99965V2.56054L42.4393 7.49956H39C38.6023 7.49909 38.2211 7.34092 37.9399 7.05973C37.6586 6.77854 37.5005 6.39731 37.5 5.99965Z" fill="black"/>
<path d="M43.5 37.4978C43.4995 37.8955 43.3413 38.2767 43.0601 38.5579C42.7789 38.8391 42.3977 38.9973 42 38.9978H32.25V40.4977H42C42.7954 40.4968 43.5579 40.1804 44.1203 39.6181C44.6827 39.0557 44.9991 38.2932 45 37.4978V32.9981H43.5V37.4978Z" fill="black"/>
<path d="M23.25 5.99965V11.9993C23.25 12.1982 23.329 12.389 23.4697 12.5296C23.6103 12.6702 23.8011 12.7493 24 12.7493H30V11.2493H24.75V9.74943H30V8.24952H24.75V6.74961H30V5.24969H24C23.8011 5.24969 23.6103 5.32871 23.4697 5.46935C23.329 5.61 23.25 5.80075 23.25 5.99965Z" fill="black"/>
<path d="M12.75 15.7491V19.4989C12.75 19.6978 12.829 19.8885 12.9697 20.0292C13.1103 20.1698 13.3011 20.2488 13.5 20.2488H17.25V18.7489H14.25V16.4991H17.25V14.9991H13.5C13.3011 14.9991 13.1103 15.0782 12.9697 15.2188C12.829 15.3594 12.75 15.5502 12.75 15.7491Z" fill="black"/>
<path d="M20.25 15.7491V20.2488H21.75V16.4991H24V20.2488H25.5V15.7491C25.5 15.5502 25.421 15.3594 25.2803 15.2188C25.1397 15.0782 24.9489 14.9991 24.75 14.9991H21C20.8011 14.9991 20.6103 15.0782 20.4697 15.2188C20.329 15.3594 20.25 15.5502 20.25 15.7491Z" fill="black"/>
<path d="M32.25 14.9991H28.5V16.4991H31.5V18.7489H28.5V20.2488H32.25C32.4489 20.2488 32.6397 20.1698 32.7803 20.0292C32.921 19.8885 33 19.6978 33 19.4989V15.7491C33 15.5502 32.921 15.3594 32.7803 15.2188C32.6397 15.0782 32.4489 14.9991 32.25 14.9991Z" fill="black"/>
<path d="M41.25 15.7491C41.25 15.5502 41.171 15.3594 41.0303 15.2188C40.8897 15.0782 40.6989 14.9991 40.5 14.9991H36.75C36.5511 14.9991 36.3603 15.0782 36.2197 15.2188C36.079 15.3594 36 15.5502 36 15.7491V20.2488H37.5V16.4991H39.75V20.2488H41.25V15.7491Z" fill="black"/>
<path d="M18 25.4985V23.9986C18 23.7997 17.921 23.609 17.7803 23.4683C17.6397 23.3277 17.4489 23.2487 17.25 23.2487H14.25C14.0511 23.2487 13.8603 23.3277 13.7197 23.4683C13.579 23.609 13.5 23.7997 13.5 23.9986V25.4985H15V24.7486H16.5V25.4985H18Z" fill="black"/>
<path d="M19.5 23.9986V25.4985H21V24.7486H23.25V23.2487H20.25C20.0511 23.2487 19.8603 23.3277 19.7197 23.4683C19.579 23.609 19.5 23.7997 19.5 23.9986Z" fill="black"/>
<path d="M24.75 23.2487V26.9984C24.75 27.1973 24.829 27.3881 24.9697 27.5287C25.1103 27.6694 25.3011 27.7484 25.5 27.7484H28.5C28.6989 27.7484 28.8897 27.6694 29.0303 27.5287C29.171 27.3881 29.25 27.1973 29.25 26.9984V23.2487H27.75V26.2485H26.25V23.2487H24.75Z" fill="black"/>
<path d="M33.75 26.2485H32.25V23.2487H30.75V26.9984C30.75 27.1973 30.829 27.3881 30.9697 27.5287C31.1103 27.6694 31.3011 27.7484 31.5 27.7484H34.5C34.6989 27.7484 34.8897 27.6694 35.0303 27.5287C35.171 27.3881 35.25 27.1973 35.25 26.9984V23.2487H33.75V26.2485Z" fill="black"/>
<path d="M36.75 26.2485V27.7484H39.75C39.9489 27.7484 40.1397 27.6694 40.2803 27.5287C40.421 27.3881 40.5 27.1973 40.5 26.9984V23.9986C40.5 23.7997 40.421 23.609 40.2803 23.4683C40.1397 23.3277 39.9489 23.2487 39.75 23.2487H36.75V24.7486H39V26.2485H36.75Z" fill="black"/>
<path d="M33.75 32.9981V31.4982C33.75 31.2993 33.671 31.1085 33.5303 30.9679C33.3897 30.8272 33.1989 30.7482 33 30.7482H30.75V32.2481H32.25V32.9981H33.75Z" fill="black"/>
<path d="M35.25 31.4982V33.7481H38.25V31.4982C38.25 31.2993 38.171 31.1085 38.0303 30.9679C37.8897 30.8272 37.6989 30.7482 37.5 30.7482H36C35.8011 30.7482 35.6103 30.8272 35.4697 30.9679C35.329 31.1085 35.25 31.2993 35.25 31.4982Z" fill="black"/>
<path d="M32.8538 36.4428C32.9488 36.3139 33 36.158 33 35.9979C33 35.8379 32.9488 35.682 32.8538 35.5531C30.4538 32.2963 27.2057 29.6902 23.4057 28.2609C20.7734 27.2672 17.9576 26.8535 15.1507 27.0482C12.3438 27.2429 9.61204 28.0413 7.14217 29.389L7.85785 30.7071C8.5805 30.3146 9.32879 29.9713 10.0976 29.6796C8.43378 31.3611 7.50036 33.6309 7.50001 35.9964C7.49966 38.3619 8.43241 40.6321 10.0958 42.3141C6.86982 41.0839 3.96807 38.9273 1.69042 35.9979C3.08846 34.1819 4.78854 32.6199 6.71626 31.3804L5.90907 30.1161C3.66917 31.5576 1.71531 33.401 0.146167 35.5533C0.0512195 35.6822 0 35.8381 0 35.9981C0 36.1582 0.0512195 36.3141 0.146167 36.4429C2.50867 39.649 5.71773 42.2246 9.44063 43.6712C11.7346 44.5624 14.291 45.0634 16.7578 44.9936C23.0479 44.9106 28.9026 41.8061 32.8538 36.4428V36.4428ZM9.00001 35.9979C9.00246 34.0339 9.77456 32.1491 11.1507 30.7478C12.5268 29.3464 14.3974 28.5401 16.3612 28.5019C16.4594 28.5011 16.558 28.5019 16.6561 28.5019C18.1323 28.5329 19.5664 28.9989 20.7788 29.8415C21.9912 30.6842 22.9278 31.8659 23.4713 33.2387C24.0147 34.6114 24.1409 36.114 23.8338 37.5581C23.5267 39.0023 22.8002 40.3236 21.7452 41.3565C20.6903 42.3894 19.3538 43.0879 17.9035 43.3645C16.4531 43.641 14.9534 43.4833 13.5924 42.911C12.2313 42.3388 11.0695 41.3775 10.2525 40.1477C9.43556 38.9179 8.99985 37.4743 9.00001 35.9979V35.9979ZM22.9042 42.3144C24.5686 40.6312 25.5015 38.3592 25.5 35.9922C25.4985 33.6251 24.5627 31.3543 22.8961 29.6733C26.1563 30.9048 29.0258 33.0558 31.3096 35.9979C29.0319 38.9273 26.1302 41.0839 22.9042 42.3144V42.3144Z" fill="black"/>
<path d="M16.5 32.2481C15.7583 32.2481 15.0333 32.468 14.4166 32.8801C13.7999 33.2921 13.3193 33.8777 13.0355 34.5629C12.7516 35.2481 12.6774 36.0021 12.8221 36.7294C12.9668 37.4568 13.3239 38.125 13.8484 38.6494C14.3728 39.1738 15.041 39.5309 15.7684 39.6756C16.4958 39.8203 17.2498 39.746 17.9351 39.4622C18.6203 39.1784 19.206 38.6978 19.618 38.0812C20.0301 37.4645 20.25 36.7395 20.25 35.9979C20.2489 35.0037 19.8534 34.0506 19.1504 33.3476C18.4474 32.6446 17.4942 32.2492 16.5 32.2481V32.2481ZM16.5 38.2478C16.055 38.2478 15.62 38.1158 15.25 37.8686C14.88 37.6214 14.5916 37.27 14.4213 36.8589C14.251 36.4478 14.2064 35.9954 14.2932 35.559C14.3801 35.1225 14.5943 34.7216 14.909 34.407C15.2237 34.0923 15.6246 33.8781 16.061 33.7913C16.4975 33.7044 16.9499 33.749 17.361 33.9193C17.7722 34.0896 18.1236 34.3779 18.3708 34.7479C18.618 35.1179 18.75 35.5529 18.75 35.9979C18.7493 36.5944 18.512 37.1662 18.0902 37.588C17.6684 38.0098 17.0965 38.2471 16.5 38.2478Z" fill="black"/>
</svg>
