<?xml version="1.0" standalone="no"?>
<!DOCTYPE svg PUBLIC "-//W3C//DTD SVG 20010904//EN"
 "http://www.w3.org/TR/2001/REC-SVG-20010904/DTD/svg10.dtd">
<svg version="1.0" xmlns="http://www.w3.org/2000/svg"
 width="512.000000pt" height="512.000000pt" viewBox="0 0 512.000000 512.000000"
 preserveAspectRatio="xMidYMid meet">
<metadata>
Created by potrace 1.11, written by Peter Selinger 2001-2013
</metadata>
<g transform="translate(0.000000,512.000000) scale(0.100000,-0.100000)"
fill="#000000" stroke="none">
<path d="M2340 5109 c-58 -5 -166 -20 -240 -34 -1082 -197 -1910 -1054 -2076
-2150 -26 -171 -26 -562 0 -730 131 -852 650 -1564 1411 -1935 240 -117 490
-195 760 -236 171 -26 561 -26 730 0 559 85 1051 333 1445 726 199 200 351
412 484 680 122 245 199 494 243 787 23 154 23 517 -1 678 -82 566 -318 1048
-715 1458 -36 38 -82 82 -103 98 l-36 29 48 -72 c92 -140 132 -271 133 -438 1
-119 -12 -191 -55 -302 -81 -214 -276 -408 -485 -484 l-73 -27 0 -976 c0 -768
-3 -980 -12 -990 -9 -9 -9 -12 -1 -7 8 4 11 -7 10 -40 -1 -36 -5 -48 -19 -52
-10 -2 -18 -9 -18 -14 0 -6 -7 -8 -15 -4 -12 4 -13 2 -2 -15 10 -17 9 -22 -6
-30 -13 -8 -15 -14 -8 -23 7 -8 5 -12 -10 -13 -10 -1 -19 3 -19 8 0 6 -5 7
-10 4 -8 -5 -7 -11 1 -21 9 -11 8 -14 -5 -14 -9 0 -16 5 -16 12 0 6 -3 8 -6 5
-10 -10 17 -38 29 -30 6 3 7 1 3 -5 -5 -9 -13 -9 -27 -2 -17 9 -19 7 -19 -18
0 -19 -5 -29 -15 -29 -11 0 -12 4 -3 14 6 7 8 16 4 20 -3 3 -6 1 -6 -6 0 -7
-5 -9 -10 -6 -7 4 -7 12 0 25 7 14 6 18 -5 16 -8 -1 -18 -6 -22 -11 -4 -4 -2
-5 6 0 9 5 12 3 9 -6 -3 -8 -13 -13 -22 -13 -9 1 -16 -2 -16 -7 0 -5 7 -9 15
-9 8 0 19 -9 25 -20 7 -14 7 -20 0 -20 -5 0 -10 5 -10 10 0 6 -5 10 -11 10 -6
0 -9 -9 -6 -20 4 -16 0 -20 -18 -20 -13 0 -26 -7 -29 -16 -5 -14 -4 -15 9 -4
12 10 21 10 41 1 22 -10 25 -9 21 2 -3 8 1 14 8 14 10 0 11 -5 4 -19 -5 -10
-17 -18 -25 -18 -8 0 -12 -4 -9 -10 3 -6 -1 -7 -10 -4 -13 5 -13 9 -3 21 10
13 9 15 -7 11 -13 -2 -20 -12 -20 -27 0 -15 -7 -25 -18 -27 -15 -2 -16 0 -5
13 10 13 10 17 0 20 -6 3 -10 9 -7 14 4 5 0 7 -7 4 -16 -6 -20 -57 -5 -67 33
-21 -1795 -1 -1991 22 -84 9 -130 38 -162 99 -31 62 -44 505 -44 1521 1 947
12 1388 37 1436 21 40 65 80 107 98 35 14 87 16 1095 42 l231 6 17 99 c29 170
103 316 220 437 114 118 274 207 426 238 111 22 287 15 381 -15 35 -11 66 -19
68 -17 6 7 -215 126 -308 166 -399 174 -819 244 -1250 209z m1460 -4044 c-5
-7 -7 -15 -3 -18 3 -4 -1 -7 -10 -7 -9 0 -17 6 -17 13 0 18 6 24 25 24 10 0
12 -4 5 -12z"/>
<path d="M3450 4555 c-166 -46 -309 -162 -388 -317 -46 -91 -65 -177 -64 -289
1 -206 106 -394 287 -516 148 -100 341 -123 521 -63 274 91 457 414 400 701
-43 211 -203 399 -401 470 -80 29 -274 36 -355 14z"/>
<path d="M2120 3799 c-168 -4 -374 -10 -457 -14 l-153 -7 0 -72 c0 -39 -3
-161 -7 -272 l-6 -201 534 5 c450 3 531 2 518 -9 -9 -8 -21 -23 -27 -34 -11
-19 -11 -19 -12 -1 0 16 -3 15 -21 -8 -11 -14 -18 -30 -14 -36 3 -5 0 -7 -8
-4 -8 3 -18 0 -23 -7 -5 -8 -3 -10 7 -5 8 4 5 0 -5 -8 -11 -9 -23 -16 -28 -16
-4 0 -8 -6 -8 -14 0 -8 -8 -16 -17 -18 -10 -2 183 -4 430 -6 l447 -2 -1 67 0
68 -72 47 c-99 65 -176 135 -236 217 -58 78 -123 211 -141 289 l-12 52 -191
-2 c-106 0 -329 -5 -497 -9z"/>
<path d="M2740 2360 l0 -180 180 0 180 0 -2 178 -3 177 -177 3 -178 2 0 -180z"/>
<path d="M2435 2425 c-59 -58 -112 -105 -118 -105 -5 0 -7 -3 -4 -6 4 -4 -16
-29 -44 -55 -28 -27 -48 -49 -43 -49 5 0 2 -5 -6 -10 -10 -7 17 -10 86 -10 56
0 135 -3 177 -6 l77 -7 0 177 c0 97 -4 176 -9 176 -5 0 -57 -47 -116 -105z"/>
<path d="M2454 1983 c-4 -10 -6 -22 -5 -26 1 -5 -3 -6 -8 -2 -6 3 -37 -22 -70
-55 -33 -33 -64 -60 -70 -60 -6 0 -11 -5 -11 -11 0 -5 5 -7 12 -3 7 4 8 3 4
-5 -4 -6 -11 -9 -16 -6 -10 6 -32 -20 -23 -28 3 -4 1 -7 -5 -7 -30 0 -52 -35
-52 -82 l0 -48 175 0 175 0 0 175 0 175 -49 0 c-37 0 -51 -4 -57 -17z"/>
<path d="M2742 1823 l3 -178 178 -3 177 -2 0 180 0 180 -180 0 -180 0 2 -177z"/>
<path d="M2002 1675 c-11 -12 -10 -15 3 -15 8 0 15 7 15 15 0 18 -2 18 -18 0z"/>
<path d="M2362 1457 c-13 -7 -20 -18 -17 -27 4 -8 3 -11 -1 -7 -10 10 -35 -13
-27 -26 3 -6 1 -7 -6 -3 -6 4 -14 0 -17 -8 -3 -9 -10 -14 -14 -11 -4 3 -13 -8
-20 -24 -6 -16 -18 -32 -26 -35 -11 -4 -14 -28 -14 -101 l0 -95 170 0 170 0 0
170 0 170 -44 0 c-24 0 -63 2 -87 4 -24 3 -54 -1 -67 -7z"/>
<path d="M2747 1464 c-9 -9 -9 -316 -1 -338 5 -14 31 -16 180 -16 l174 0 -2
178 -3 177 -171 3 c-93 1 -173 -1 -177 -4z"/>
<path d="M1992 1314 c-18 -20 -32 -33 -32 -29 0 3 -7 -1 -16 -9 -8 -9 -13 -20
-10 -25 3 -5 -10 -18 -29 -30 -19 -11 -35 -25 -35 -31 0 -5 -7 -10 -15 -10 -8
0 -15 -7 -15 -15 0 -8 -4 -15 -10 -15 -5 0 -10 -4 -10 -10 0 -6 42 -10 105
-10 l105 0 0 110 c0 61 -1 110 -3 110 -2 0 -18 -16 -35 -36z"/>
<path d="M3706 1051 c-4 -5 -13 -8 -20 -5 -17 7 -30 -12 -16 -21 6 -4 21 1 32
12 21 18 21 18 14 -2 -6 -16 -5 -18 5 -7 9 9 10 15 2 23 -7 7 -13 7 -17 0z"/>
<path d="M3544 893 c2 -9 11 -17 20 -19 17 -2 17 -2 0 17 -21 23 -23 23 -20 2z"/>
<path d="M3451 807 c-8 -10 -7 -14 4 -14 8 0 12 4 9 8 -2 4 2 10 8 12 8 4 9 6
2 6 -6 1 -17 -5 -23 -12z"/>
<path d="M3405 800 c-3 -5 -1 -10 4 -10 6 0 11 5 11 10 0 6 -2 10 -4 10 -3 0
-8 -4 -11 -10z"/>
</g>
</svg>
